<?xml version="1.0" encoding="UTF-8" standalone="no"?>
<!-- Created with Inkscape (http://www.inkscape.org/) -->

<svg
   xmlns:dc="http://purl.org/dc/elements/1.1/"
   xmlns:cc="http://creativecommons.org/ns#"
   xmlns:rdf="http://www.w3.org/1999/02/22-rdf-syntax-ns#"
   xmlns:svg="http://www.w3.org/2000/svg"
   xmlns="http://www.w3.org/2000/svg"
   xmlns:sodipodi="http://sodipodi.sourceforge.net/DTD/sodipodi-0.dtd"
   xmlns:inkscape="http://www.inkscape.org/namespaces/inkscape"
   width="200"
   height="200"
   viewBox="0 0 52.916665 52.916668"
   version="1.1"
   id="svg8"
   inkscape:version="0.92.2 (5c3e80d, 2017-08-06)"
   sodipodi:docname="clear.svg">
  <defs
     id="defs2" />
  <sodipodi:namedview
     id="base"
     pagecolor="#4e4e4e"
     bordercolor="#666666"
     borderopacity="1.0"
     inkscape:pageopacity="0"
     inkscape:pageshadow="2"
     inkscape:zoom="1.979899"
     inkscape:cx="35.411047"
     inkscape:cy="75.044077"
     inkscape:document-units="mm"
     inkscape:current-layer="layer1"
     showgrid="false"
     units="px"
     inkscape:window-width="1600"
     inkscape:window-height="837"
     inkscape:window-x="-8"
     inkscape:window-y="-8"
     inkscape:window-maximized="1" />
  <metadata
     id="metadata5">
    <rdf:RDF>
      <cc:Work
         rdf:about="">
        <dc:format>image/svg+xml</dc:format>
        <dc:type
           rdf:resource="http://purl.org/dc/dcmitype/StillImage" />
        <dc:title></dc:title>
      </cc:Work>
    </rdf:RDF>
  </metadata>
  <g
     inkscape:label="Layer 1"
     inkscape:groupmode="layer"
     id="layer1"
     transform="translate(0,-244.08332)">
    <path
       style="opacity:1;fill:#000000;fill-opacity:1;fill-rule:evenodd;stroke:none;stroke-width:0;stroke-linecap:round;stroke-linejoin:round;stroke-miterlimit:4;stroke-dasharray:none;stroke-dashoffset:0;stroke-opacity:1;paint-order:stroke fill markers"
       d="m 18.771799,266.19865 h 2.225489 3.338235 v -8.81989 h 3.338233 3.338235 v 8.81989 h 3.338234 2.225489 c 0.08686,0 0.171602,0.009 0.2534,0.0254 0.0818,0.0167 0.160651,0.0412 0.235731,0.0729 0.07508,0.0317 0.146389,0.0704 0.213096,0.11537 0.06671,0.045 0.128814,0.0962 0.185492,0.15292 0.05668,0.0567 0.107928,0.11879 0.15292,0.1855 0.04499,0.0667 0.08373,0.13801 0.11538,0.21309 0.03165,0.0751 0.05622,0.15393 0.07287,0.23573 0.01665,0.0818 0.02539,0.16654 0.02539,0.2534 v 7.4988 l -2.405426,7.49879 c -0.01326,0.0413 -0.0254,0.0827 -0.03692,0.12383 -0.01152,0.0411 -0.02243,0.082 -0.03324,0.12256 -0.01081,0.0405 -0.02153,0.0806 -0.03268,0.1201 -0.01114,0.0395 -0.02271,0.0784 -0.03522,0.11641 -0.01251,0.0381 -0.02596,0.0753 -0.04087,0.11154 -0.01491,0.0362 -0.03128,0.0715 -0.04963,0.10545 -0.01835,0.034 -0.03868,0.0668 -0.06151,0.0982 -0.02283,0.0314 -0.04815,0.0613 -0.07649,0.0897 -0.02834,0.0283 -0.05804,0.0553 -0.08899,0.0808 -0.03095,0.0255 -0.06315,0.0496 -0.09651,0.0721 -0.03335,0.0225 -0.06786,0.0434 -0.103408,0.0627 -0.03555,0.0193 -0.07215,0.0369 -0.109688,0.0527 -0.03754,0.0158 -0.07602,0.0299 -0.115347,0.0421 -0.03932,0.0122 -0.07949,0.0225 -0.120385,0.0308 -0.0409,0.008 -0.08253,0.0147 -0.124802,0.019 -0.04227,0.004 -0.08517,0.006 -0.128598,0.006 h -1.11274 -1.112744 -1.112744 -1.112744 -1.112744 -1.112744 -1.112744 -1.112744 -1.112745 -1.112745 -1.112744 -1.112745 -1.112745 -1.112744 -1.112745 -1.112745 c -0.04343,0 -0.08633,-0.002 -0.128598,-0.006 -0.04227,-0.004 -0.0839,-0.0106 -0.124802,-0.019 -0.0409,-0.008 -0.08106,-0.0186 -0.120385,-0.0308 -0.03932,-0.0122 -0.07781,-0.0262 -0.115347,-0.0421 -0.03754,-0.0158 -0.07414,-0.0334 -0.109688,-0.0527 -0.03555,-0.0193 -0.07005,-0.0402 -0.103408,-0.0627 -0.03335,-0.0225 -0.06556,-0.0466 -0.09651,-0.0721 -0.03095,-0.0255 -0.06065,-0.0525 -0.08898,-0.0808 -0.02834,-0.0283 -0.05698,-0.0583 -0.0852,-0.0897 -0.02821,-0.0314 -0.05601,-0.0642 -0.08265,-0.0982 -0.02664,-0.034 -0.05213,-0.0692 -0.07575,-0.10545 -0.02362,-0.0362 -0.04536,-0.0735 -0.0645,-0.11154 -0.01914,-0.038 -0.03568,-0.0769 -0.0489,-0.11641 -0.01322,-0.0395 -0.02311,-0.0796 -0.02895,-0.1201 -0.0058,-0.0405 -0.0076,-0.0814 -0.0046,-0.12256 0.003,-0.0411 0.01075,-0.0825 0.02402,-0.12383 l 2.405426,-7.49879 v -7.4988 c 0,-0.0869 0.0087,-0.1716 0.02539,-0.2534 0.01665,-0.0818 0.04122,-0.16065 0.07287,-0.23573 0.03165,-0.0751 0.07039,-0.14639 0.11538,-0.21309 0.04499,-0.0667 0.09624,-0.12882 0.152919,-0.1855 0.05668,-0.0567 0.118785,-0.10792 0.185492,-0.15292 0.06671,-0.045 0.138015,-0.0837 0.213096,-0.11537 0.07508,-0.0317 0.153934,-0.0562 0.235732,-0.0729 0.0818,-0.0167 0.166541,-0.0254 0.2534,-0.0254 z"
       id="rect926"
       inkscape:connector-curvature="0"
       sodipodi:nodetypes="ccccssssscssscssscssssssssssssssssscccccccscccccccsssssssscsssssssscsccsccccsc" />
  </g>
</svg>
